<?xml version="1.0" encoding="UTF-8" standalone="no"?>
<!-- Created with Inkscape (http://www.inkscape.org/) -->

<svg
   width="34.924957mm"
   height="34.924957mm"
   viewBox="0 0 34.924957 34.924957"
   version="1.1"
   id="svg5"
   sodipodi:docname="qr-doi-to-slides.svg"
   inkscape:version="1.2.2 (b0a8486541, 2022-12-01)"
   inkscape:export-filename="qr-doi-to-slides.png"
   inkscape:export-xdpi="436.35999"
   inkscape:export-ydpi="436.35999"
   xmlns:inkscape="http://www.inkscape.org/namespaces/inkscape"
   xmlns:sodipodi="http://sodipodi.sourceforge.net/DTD/sodipodi-0.dtd"
   xmlns="http://www.w3.org/2000/svg"
   xmlns:svg="http://www.w3.org/2000/svg">
  <sodipodi:namedview
     id="namedview7"
     pagecolor="#363636"
     bordercolor="#000000"
     borderopacity="0.25"
     inkscape:showpageshadow="2"
     inkscape:pageopacity="0"
     inkscape:pagecheckerboard="0"
     inkscape:deskcolor="#d1d1d1"
     inkscape:document-units="mm"
     showgrid="false"
     inkscape:zoom="1.6819304"
     inkscape:cx="55.293607"
     inkscape:cy="148.63873"
     inkscape:window-width="1050"
     inkscape:window-height="1619"
     inkscape:window-x="0"
     inkscape:window-y="25"
     inkscape:window-maximized="1"
     inkscape:current-layer="layer1" />
  <defs
     id="defs2" />
  <g
     inkscape:label="Layer 1"
     inkscape:groupmode="layer"
     id="layer1"
     transform="translate(-60.235428,-152.73333)">
    <g
       style="fill:#ffffff;fill-opacity:1;stroke:none"
       id="g304"
       transform="matrix(0.264583,0,0,0.264583,56.0021,148.5)">
      <path
         d="m 147.6,148 h -3.2 c -0.22091,0 -0.4,-0.17909 -0.4,-0.4 v -3.2 c 0,-0.22091 0.17909,-0.4 0.4,-0.4 h 3.2 c 0.22091,0 0.4,0.17909 0.4,0.4 v 3.2 c 0,0.22091 -0.17909,0.4 -0.4,0.4 z m -24,0 h -3.2 c -0.22091,0 -0.4,-0.17909 -0.4,-0.4 V 144 h 3.6 c 0.22091,0 0.4,0.17909 0.4,0.4 v 3.2 c 0,0.22091 -0.17909,0.4 -0.4,0.4 z m -8,0 h -3.2 c -0.22091,0 -0.4,-0.17909 -0.4,-0.4 v -7.2 c 0,-0.22091 0.17909,-0.4 0.4,-0.4 h 7.6 v 4 h -3.6 c -0.22091,0 -0.4,0.17909 -0.4,0.4 v 3.2 c 0,0.22091 -0.17909,0.4 -0.4,0.4 z m -12,0 h -3.2 c -0.22091,0 -0.4,-0.17909 -0.4,-0.4 V 140 h 3.6 c 0.22091,0 0.4,0.17909 0.4,0.4 v 7.2 c 0,0.22091 -0.17909,0.4 -0.4,0.4 z m -8,0 H 92.4 C 92.179086,148 92,147.82091 92,147.6 V 144 h 3.6 c 0.220914,0 0.4,0.17909 0.4,0.4 v 3.2 c 0,0.22091 -0.179086,0.4 -0.4,0.4 z m -8,0 h -3.2 c -0.220914,0 -0.4,-0.17909 -0.4,-0.4 v -3.2 C 84,144.17909 83.820914,144 83.6,144 H 72.4 c -0.220914,0 -0.4,0.17909 -0.4,0.4 v 3.2 c 0,0.22091 -0.179086,0.4 -0.4,0.4 h -3.2 c -0.220914,0 -0.4,-0.17909 -0.4,-0.4 v -3.2 C 68,144.17909 67.820914,144 67.6,144 H 56 v -3.6 c 0,-0.22091 0.179086,-0.4 0.4,-0.4 h 15.2 c 0.220914,0 0.4,-0.17909 0.4,-0.4 v -3.2 c 0,-0.22091 0.179086,-0.4 0.4,-0.4 h 7.2 c 0.220914,0 0.4,0.17909 0.4,0.4 v 3.2 c 0,0.22091 0.179086,0.4 0.4,0.4 h 7.2 c 0.220914,0 0.4,-0.17909 0.4,-0.4 v -3.2 C 88,136.17909 87.820914,136 87.6,136 H 84.4 C 84.179086,136 84,135.82091 84,135.6 V 132 h 7.6 c 0.220914,0 0.4,-0.17909 0.4,-0.4 v -3.2 c 0,-0.22091 0.179086,-0.4 0.4,-0.4 h 3.2 c 0.220914,0 0.4,0.17909 0.4,0.4 v 3.2 c 0,0.22091 0.179086,0.4 0.4,0.4 h 7.6 v 3.6 c 0,0.22091 -0.17909,0.4 -0.4,0.4 h -3.2 c -0.22091,0 -0.4,0.17909 -0.4,0.4 v 3.6 h -3.6 c -0.220914,0 -0.4,-0.17909 -0.4,-0.4 v -3.2 c 0,-0.22091 -0.179086,-0.4 -0.4,-0.4 h -3.2 c -0.220914,0 -0.4,0.17909 -0.4,0.4 v 7.6 h -3.6 c -0.220914,0 -0.4,0.17909 -0.4,0.4 v 3.2 c 0,0.22091 -0.179086,0.4 -0.4,0.4 z m -32,0 h -7.2 c -0.220914,0 -0.4,-0.17909 -0.4,-0.4 v -3.2 c 0,-0.22091 0.179086,-0.4 0.4,-0.4 H 56 v 3.6 c 0,0.22091 -0.179086,0.4 -0.4,0.4 z m -12,0 H 16.4 c -0.220914,0 -0.4,-0.17909 -0.4,-0.4 v -27.2 c 0,-0.22091 0.179086,-0.4 0.4,-0.4 h 27.2 c 0.220914,0 0.4,0.17909 0.4,0.4 v 27.2 c 0,0.22091 -0.179086,0.4 -0.4,0.4 z m 92,-4 h -3.2 c -0.22091,0 -0.4,-0.17909 -0.4,-0.4 V 140 h 3.6 c 0.22091,0 0.4,0.17909 0.4,0.4 v 3.2 c 0,0.22091 -0.17909,0.4 -0.4,0.4 z M 40,143.6 V 124.4 C 40,124.17909 39.820914,124 39.6,124 H 20.4 c -0.220914,0 -0.4,0.17909 -0.4,0.4 v 19.2 c 0,0.22091 0.179086,0.4 0.4,0.4 h 19.2 c 0.220914,0 0.4,-0.17909 0.4,-0.4 z M 131.6,140 H 120 v -7.6 c 0,-0.22091 -0.17909,-0.4 -0.4,-0.4 h -3.2 c -0.22091,0 -0.4,0.17909 -0.4,0.4 v 3.2 c 0,0.22091 -0.17909,0.4 -0.4,0.4 h -3.2 c -0.22091,0 -0.4,-0.17909 -0.4,-0.4 V 112 h 3.6 c 0.22091,0 0.4,-0.17909 0.4,-0.4 v -3.2 c 0,-0.22091 -0.17909,-0.4 -0.4,-0.4 h -3.2 c -0.22091,0 -0.4,0.17909 -0.4,0.4 v 3.6 h -3.6 c -0.22091,0 -0.4,-0.17909 -0.4,-0.4 v -7.2 c 0,-0.22091 -0.17909,-0.4 -0.4,-0.4 h -3.2 c -0.22091,0 -0.4,-0.17909 -0.4,-0.4 v -3.2 c 0,-0.22091 0.17909,-0.4 0.4,-0.4 h 3.2 c 0.22091,0 0.4,-0.179086 0.4,-0.4 v -3.2 c 0,-0.220914 0.17909,-0.4 0.4,-0.4 h 3.6 v 3.6 c 0,0.220914 0.17909,0.4 0.4,0.4 h 3.6 v 3.6 c 0,0.22091 0.17909,0.4 0.4,0.4 h 11.2 c 0.22091,0 0.4,0.17909 0.4,0.4 v 3.2 c 0,0.22091 -0.17909,0.4 -0.4,0.4 h -3.2 c -0.22091,0 -0.4,0.17909 -0.4,0.4 v 3.2 c 0,0.22091 0.17909,0.4 0.4,0.4 h 7.2 c 0.22091,0 0.4,0.17909 0.4,0.4 v 7.2 c 0,0.22091 0.17909,0.4 0.4,0.4 h 3.6 v 3.6 c 0,0.22091 -0.17909,0.4 -0.4,0.4 h -3.2 c -0.22091,0 -0.4,0.17909 -0.4,0.4 v 3.2 c 0,0.22091 0.17909,0.4 0.4,0.4 h 3.2 c 0.22091,0 0.4,0.17909 0.4,0.4 v 3.2 c 0,0.22091 0.17909,0.4 0.4,0.4 h 7.6 v 3.6 c 0,0.22091 -0.17909,0.4 -0.4,0.4 h -11.2 c -0.22091,0 -0.4,0.17909 -0.4,0.4 v 3.6 z m -96,0 H 24.4 c -0.220914,0 -0.4,-0.17909 -0.4,-0.4 v -11.2 c 0,-0.22091 0.179086,-0.4 0.4,-0.4 h 11.2 c 0.220914,0 0.4,0.17909 0.4,0.4 v 11.2 c 0,0.22091 -0.179086,0.4 -0.4,0.4 z m 32,-4 h -3.2 c -0.220914,0 -0.4,-0.17909 -0.4,-0.4 v -7.2 c 0,-0.22091 0.179086,-0.4 0.4,-0.4 h 3.2 c 0.220914,0 0.4,0.17909 0.4,0.4 v 7.2 c 0,0.22091 -0.179086,0.4 -0.4,0.4 z m -8,0 H 52.4 C 52.179086,136 52,135.82091 52,135.6 V 132 h 3.6 c 0.220914,0 0.4,-0.17909 0.4,-0.4 V 128 h 3.6 c 0.220914,0 0.4,0.17909 0.4,0.4 v 7.2 c 0,0.22091 -0.179086,0.4 -0.4,0.4 z m 88,-4 H 144 v -3.6 c 0,-0.22091 -0.17909,-0.4 -0.4,-0.4 h -3.2 c -0.22091,0 -0.4,-0.17909 -0.4,-0.4 V 120 h 3.6 c 0.22091,0 0.4,0.17909 0.4,0.4 v 3.2 c 0,0.22091 0.17909,0.4 0.4,0.4 h 3.2 c 0.22091,0 0.4,0.17909 0.4,0.4 v 7.2 c 0,0.22091 -0.17909,0.4 -0.4,0.4 z m -40,0 H 104 v -7.6 c 0,-0.22091 0.17909,-0.4 0.4,-0.4 h 3.2 c 0.22091,0 0.4,0.17909 0.4,0.4 v 7.2 c 0,0.22091 -0.17909,0.4 -0.4,0.4 z m -24,0 h -7.2 c -0.220914,0 -0.4,-0.17909 -0.4,-0.4 v -3.2 c 0,-0.22091 -0.179086,-0.4 -0.4,-0.4 h -3.2 c -0.220914,0 -0.4,-0.17909 -0.4,-0.4 v -3.2 C 72,124.17909 71.820914,124 71.6,124 H 56.4 c -0.220914,0 -0.4,0.17909 -0.4,0.4 v 3.6 h -4 v -3.6 c 0,-0.22091 -0.179086,-0.4 -0.4,-0.4 h -3.2 c -0.220914,0 -0.4,-0.17909 -0.4,-0.4 v -7.2 c 0,-0.22091 0.179086,-0.4 0.4,-0.4 h 3.2 c 0.220914,0 0.4,-0.17909 0.4,-0.4 v -3.2 c 0,-0.22091 0.179086,-0.4 0.4,-0.4 H 56 v 3.6 c 0,0.22091 0.179086,0.4 0.4,0.4 H 60 v 3.6 c 0,0.22091 0.179086,0.4 0.4,0.4 h 3.2 c 0.220914,0 0.4,-0.17909 0.4,-0.4 V 116 h 3.6 c 0.220914,0 0.4,-0.17909 0.4,-0.4 v -3.2 C 68,112.17909 67.820914,112 67.6,112 H 64 v -3.6 c 0,-0.22091 0.179086,-0.4 0.4,-0.4 H 72 v 11.6 c 0,0.22091 0.179086,0.4 0.4,0.4 h 3.2 c 0.220914,0 0.4,-0.17909 0.4,-0.4 v -7.2 c 0,-0.22091 0.179086,-0.4 0.4,-0.4 h 7.2 c 0.220914,0 0.4,-0.17909 0.4,-0.4 v -3.2 C 84,108.17909 83.820914,108 83.6,108 H 80.4 C 80.179086,108 80,107.82091 80,107.6 V 100 h 3.6 c 0.220914,0 0.4,0.17909 0.4,0.4 v 3.2 c 0,0.22091 0.179086,0.4 0.4,0.4 h 7.2 c 0.220914,0 0.4,-0.17909 0.4,-0.4 v -3.2 C 92,100.17909 91.820914,100 91.6,100 H 88.4 C 88.179086,100 88,99.820914 88,99.6 V 96.4 C 88,96.179086 87.820914,96 87.6,96 H 80.4 C 80.179086,96 80,96.179086 80,96.4 V 100 H 76.4 C 76.179086,100 76,99.820914 76,99.6 V 96.4 C 76,96.179086 75.820914,96 75.6,96 H 72.4 C 72.179086,96 72,95.820914 72,95.6 V 92 h 3.6 C 75.820914,92 76,91.820914 76,91.6 V 88.4 C 76,88.179086 75.820914,88 75.6,88 H 72 V 84.4 C 72,84.179086 72.179086,84 72.4,84 h 7.2 c 0.220914,0 0.4,0.179086 0.4,0.4 v 7.2 c 0,0.220914 0.179086,0.4 0.4,0.4 h 3.2 C 83.820914,92 84,91.820914 84,91.6 V 88.4 C 84,88.179086 84.179086,88 84.4,88 h 3.2 c 0.220914,0 0.4,0.179086 0.4,0.4 v 3.2 c 0,0.220914 0.179086,0.4 0.4,0.4 h 3.2 c 0.220914,0 0.4,0.179086 0.4,0.4 v 3.2 c 0,0.220914 0.179086,0.4 0.4,0.4 h 7.6 v 3.6 c 0,0.220914 -0.179086,0.4 -0.4,0.4 h -3.2 c -0.220914,0 -0.4,0.17909 -0.4,0.4 v 7.2 c 0,0.22091 0.179086,0.4 0.4,0.4 h 7.2 c 0.22091,0 0.4,0.17909 0.4,0.4 v 11.2 c 0,0.22091 -0.17909,0.4 -0.4,0.4 h -3.2 c -0.22091,0 -0.4,0.17909 -0.4,0.4 v 3.2 c 0,0.22091 -0.179086,0.4 -0.4,0.4 h -3.2 c -0.220914,0 -0.4,-0.17909 -0.4,-0.4 v -7.2 c 0,-0.22091 0.179086,-0.4 0.4,-0.4 h 3.2 c 0.220914,0 0.4,-0.17909 0.4,-0.4 v -3.2 c 0,-0.22091 -0.179086,-0.4 -0.4,-0.4 H 92 v -3.6 c 0,-0.22091 -0.179086,-0.4 -0.4,-0.4 h -3.2 c -0.220914,0 -0.4,0.17909 -0.4,0.4 v 3.2 c 0,0.22091 0.179086,0.4 0.4,0.4 H 92 v 11.6 c 0,0.22091 -0.179086,0.4 -0.4,0.4 h -3.2 c -0.220914,0 -0.4,-0.17909 -0.4,-0.4 v -3.2 c 0,-0.22091 -0.179086,-0.4 -0.4,-0.4 h -3.2 c -0.220914,0 -0.4,-0.17909 -0.4,-0.4 v -3.2 c 0,-0.22091 -0.179086,-0.4 -0.4,-0.4 h -3.2 c -0.220914,0 -0.4,0.17909 -0.4,0.4 v 11.2 c 0,0.22091 0.179086,0.4 0.4,0.4 h 3.2 c 0.220914,0 0.4,0.17909 0.4,0.4 v 3.6 z m -32,0 h -3.2 c -0.220914,0 -0.4,-0.17909 -0.4,-0.4 v -3.2 c 0,-0.22091 0.179086,-0.4 0.4,-0.4 H 52 v 4 z m 76.4,-4.4 v -11.2 c 0,-0.22091 -0.17909,-0.4 -0.4,-0.4 h -11.2 c -0.22091,0 -0.4,0.17909 -0.4,0.4 v 11.2 c 0,0.22091 0.17909,0.4 0.4,0.4 h 11.2 c 0.22091,0 0.4,-0.17909 0.4,-0.4 z m -4.4,-3.6 h -3.2 c -0.22091,0 -0.4,-0.17909 -0.4,-0.4 v -3.2 c 0,-0.22091 0.17909,-0.4 0.4,-0.4 h 3.2 c 0.22091,0 0.4,0.17909 0.4,0.4 v 3.2 c 0,0.22091 -0.17909,0.4 -0.4,0.4 z m 16,-4 H 136 v -3.6 c 0,-0.22091 0.17909,-0.4 0.4,-0.4 h 3.2 c 0.22091,0 0.4,0.17909 0.4,0.4 v 3.6 z m -76,-4 H 60 v -4 h 4 v 4 z m -20,0 H 32.4 c -0.220914,0 -0.4,-0.17909 -0.4,-0.4 v -3.2 c 0,-0.22091 0.179086,-0.4 0.4,-0.4 h 3.2 c 0.220914,0 0.4,-0.17909 0.4,-0.4 V 108 h 4 v 3.6 c 0,0.22091 0.179086,0.4 0.4,0.4 H 44 v 3.6 c 0,0.22091 -0.179086,0.4 -0.4,0.4 z m -20,0 h -7.2 c -0.220914,0 -0.4,-0.17909 -0.4,-0.4 v -3.2 c 0,-0.22091 0.179086,-0.4 0.4,-0.4 H 24 v 3.6 c 0,0.22091 -0.179086,0.4 -0.4,0.4 z m 120,-4 h -3.2 c -0.22091,0 -0.4,-0.17909 -0.4,-0.4 v -3.2 c 0,-0.22091 -0.17909,-0.4 -0.4,-0.4 h -7.2 c -0.22091,0 -0.4,-0.17909 -0.4,-0.4 v -3.2 c 0,-0.22091 0.17909,-0.4 0.4,-0.4 h 3.2 c 0.22091,0 0.4,-0.17909 0.4,-0.4 V 100 h 3.6 c 0.22091,0 0.4,-0.179086 0.4,-0.4 V 88.4 c 0,-0.220914 -0.17909,-0.4 -0.4,-0.4 h -3.2 c -0.22091,0 -0.4,0.179086 -0.4,0.4 v 3.2 c 0,0.220914 -0.17909,0.4 -0.4,0.4 h -3.2 c -0.22091,0 -0.4,-0.179086 -0.4,-0.4 v -7.2 c 0,-0.220914 -0.17909,-0.4 -0.4,-0.4 h -11.2 c -0.22091,0 -0.4,0.179086 -0.4,0.4 v 3.2 c 0,0.220914 -0.17909,0.4 -0.4,0.4 H 116 V 84.4 C 116,84.179086 115.82091,84 115.6,84 H 112 v -3.6 c 0,-0.220914 0.17909,-0.4 0.4,-0.4 h 3.2 c 0.22091,0 0.4,-0.179086 0.4,-0.4 v -3.2 c 0,-0.220914 -0.17909,-0.4 -0.4,-0.4 h -7.2 c -0.22091,0 -0.4,0.179086 -0.4,0.4 V 84 h -7.6 c -0.22091,0 -0.4,0.179086 -0.4,0.4 V 88 H 96.4 C 96.179086,88 96,87.820914 96,87.6 V 84.4 C 96,84.179086 95.820914,84 95.6,84 H 84.4 C 84.179086,84 84,83.820914 84,83.6 V 80.4 C 84,80.179086 83.820914,80 83.6,80 H 64.4 C 64.179086,80 64,79.820914 64,79.6 V 76.4 C 64,76.179086 64.179086,76 64.4,76 H 75.6 C 75.820914,76 76,75.820914 76,75.6 V 72 h 3.6 c 0.220914,0 0.4,0.179086 0.4,0.4 v 3.2 c 0,0.220914 0.179086,0.4 0.4,0.4 h 3.2 C 83.820914,76 84,75.820914 84,75.6 V 68 h 15.6 c 0.220914,0 0.4,0.179086 0.4,0.4 V 76 H 96.4 C 96.179086,76 96,75.820914 96,75.6 V 72.4 C 96,72.179086 95.820914,72 95.6,72 H 88.4 C 88.179086,72 88,72.179086 88,72.4 v 7.2 c 0,0.220914 0.179086,0.4 0.4,0.4 h 11.2 c 0.220914,0 0.4,-0.179086 0.4,-0.4 V 76 h 3.6 c 0.22091,0 0.4,-0.179086 0.4,-0.4 v -3.2 c 0,-0.220914 0.17909,-0.4 0.4,-0.4 h 3.2 c 0.22091,0 0.4,-0.179086 0.4,-0.4 v -3.2 c 0,-0.220914 -0.17909,-0.4 -0.4,-0.4 h -3.2 c -0.22091,0 -0.4,-0.179086 -0.4,-0.4 v -7.2 c 0,-0.220914 0.17909,-0.4 0.4,-0.4 h 3.2 c 0.22091,0 0.4,-0.179086 0.4,-0.4 V 56.4 C 108,56.179086 107.82091,56 107.6,56 H 96.4 C 96.179086,56 96,55.820914 96,55.6 V 52.4 C 96,52.179086 96.179086,52 96.4,52 h 3.2 c 0.220914,0 0.4,-0.179086 0.4,-0.4 V 48.4 C 100,48.179086 99.820914,48 99.6,48 H 92 v -4 h 3.6 C 95.820914,44 96,43.820914 96,43.6 V 36 h 3.6 c 0.220914,0 0.4,-0.179086 0.4,-0.4 V 28.4 C 100,28.179086 99.820914,28 99.6,28 H 88.4 C 88.179086,28 88,28.179086 88,28.4 v 3.2 C 88,31.820914 87.820914,32 87.6,32 H 84.4 C 84.179086,32 84,32.179086 84,32.4 v 3.2 C 84,35.820914 83.820914,36 83.6,36 H 80 V 32.4 C 80,32.179086 79.820914,32 79.6,32 H 76.4 C 76.179086,32 76,31.820914 76,31.6 V 28 h 7.6 C 83.820914,28 84,27.820914 84,27.6 V 24.4 C 84,24.179086 84.179086,24 84.4,24 h 3.2 C 87.820914,24 88,23.820914 88,23.6 V 20.4 C 88,20.179086 88.179086,20 88.4,20 h 7.2 C 95.820914,20 96,19.820914 96,19.6 V 16.4 C 96,16.179086 96.179086,16 96.4,16 h 3.2 c 0.220914,0 0.4,0.179086 0.4,0.4 v 3.2 c 0,0.220914 0.17909,0.4 0.4,0.4 h 7.6 v 3.6 c 0,0.220914 -0.17909,0.4 -0.4,0.4 h -3.2 c -0.22091,0 -0.4,0.179086 -0.4,0.4 v 3.2 c 0,0.220914 0.17909,0.4 0.4,0.4 h 3.2 c 0.22091,0 0.4,0.179086 0.4,0.4 V 32 h -3.6 c -0.22091,0 -0.4,0.179086 -0.4,0.4 v 3.2 c 0,0.220914 0.17909,0.4 0.4,0.4 h 3.6 v 8 h -4 v -3.6 c 0,-0.220914 -0.17909,-0.4 -0.4,-0.4 h -3.2 c -0.22091,0 -0.4,0.179086 -0.4,0.4 v 3.2 c 0,0.220914 0.17909,0.4 0.4,0.4 h 3.6 v 3.6 c 0,0.220914 0.17909,0.4 0.4,0.4 h 3.6 v 3.6 c 0,0.220914 0.17909,0.4 0.4,0.4 h 3.2 c 0.22091,0 0.4,-0.179086 0.4,-0.4 V 48.4 C 112,48.179086 111.82091,48 111.6,48 H 108 v -4 h 3.6 c 0.22091,0 0.4,-0.179086 0.4,-0.4 v -3.2 c 0,-0.220914 0.17909,-0.4 0.4,-0.4 h 3.2 c 0.22091,0 0.4,0.179086 0.4,0.4 v 7.2 c 0,0.220914 0.17909,0.4 0.4,0.4 h 19.2 c 0.22091,0 0.4,0.179086 0.4,0.4 v 3.2 c 0,0.220914 0.17909,0.4 0.4,0.4 h 7.6 v 7.6 c 0,0.220914 -0.17909,0.4 -0.4,0.4 h -3.2 c -0.22091,0 -0.4,-0.179086 -0.4,-0.4 v -3.2 c 0,-0.220914 -0.17909,-0.4 -0.4,-0.4 h -3.2 c -0.22091,0 -0.4,0.179086 -0.4,0.4 v 3.2 c 0,0.220914 -0.17909,0.4 -0.4,0.4 h -3.2 c -0.22091,0 -0.4,-0.179086 -0.4,-0.4 v -7.2 c 0,-0.220914 -0.17909,-0.4 -0.4,-0.4 h -11.2 c -0.22091,0 -0.4,0.179086 -0.4,0.4 v 3.2 c 0,0.220914 -0.17909,0.4 -0.4,0.4 h -3.2 c -0.22091,0 -0.4,0.179086 -0.4,0.4 v 3.2 c 0,0.220914 -0.17909,0.4 -0.4,0.4 h -3.2 c -0.22091,0 -0.4,0.179086 -0.4,0.4 v 7.2 c 0,0.220914 0.17909,0.4 0.4,0.4 h 3.6 v 3.6 c 0,0.220914 0.17909,0.4 0.4,0.4 h 11.2 c 0.22091,0 0.4,0.179086 0.4,0.4 v 3.2 c 0,0.220914 0.17909,0.4 0.4,0.4 h 3.2 c 0.22091,0 0.4,0.179086 0.4,0.4 v 3.2 c 0,0.220914 0.17909,0.4 0.4,0.4 h 3.2 c 0.22091,0 0.4,0.179086 0.4,0.4 v 3.2 c 0,0.220914 0.17909,0.4 0.4,0.4 h 3.2 c 0.22091,0 0.4,-0.179086 0.4,-0.4 v -3.2 c 0,-0.220914 0.17909,-0.4 0.4,-0.4 h 3.2 c 0.22091,0 0.4,0.179086 0.4,0.4 v 11.2 c 0,0.220914 0.17909,0.4 0.4,0.4 h 3.2 c 0.22091,0 0.4,0.179086 0.4,0.4 v 7.2 c 0,0.220914 -0.17909,0.4 -0.4,0.4 h -3.2 c -0.22091,0 -0.4,0.17909 -0.4,0.4 v 11.2 c 0,0.22091 -0.17909,0.4 -0.4,0.4 z m -84,0 H 56 v -7.6 c 0,-0.22091 0.179086,-0.4 0.4,-0.4 H 60 v 8 z m -12,0 H 44 v -4 h 4 v 3.6 c 0,0.22091 -0.179086,0.4 -0.4,0.4 z m -20,0 H 24 v -7.6 c 0,-0.22091 0.179086,-0.4 0.4,-0.4 h 3.2 c 0.220914,0 0.4,-0.17909 0.4,-0.4 v -3.2 C 28,100.17909 27.820914,100 27.6,100 H 24.4 C 24.179086,100 24,99.820914 24,99.6 V 96.4 C 24,96.179086 23.820914,96 23.6,96 H 20 v -4 h 7.6 C 27.820914,92 28,91.820914 28,91.6 V 88.4 C 28,88.179086 28.179086,88 28.4,88 h 7.2 C 35.820914,88 36,87.820914 36,87.6 V 80.4 C 36,80.179086 36.179086,80 36.4,80 H 44 v 3.6 C 44,83.820914 43.820914,84 43.6,84 H 40.4 C 40.179086,84 40,84.179086 40,84.4 v 3.2 c 0,0.220914 0.179086,0.4 0.4,0.4 h 3.2 c 0.220914,0 0.4,0.179086 0.4,0.4 V 92 H 40.4 C 40.179086,92 40,92.179086 40,92.4 V 96 H 36 V 92.4 C 36,92.179086 35.820914,92 35.6,92 H 32.4 C 32.179086,92 32,92.179086 32,92.4 v 3.2 c 0,0.220914 0.179086,0.4 0.4,0.4 H 36 v 3.6 c 0,0.220914 -0.179086,0.4 -0.4,0.4 h -3.2 c -0.220914,0 -0.4,0.17909 -0.4,0.4 v 3.2 c 0,0.22091 0.179086,0.4 0.4,0.4 h 3.2 c 0.220914,0 0.4,0.17909 0.4,0.4 v 3.6 h -7.6 c -0.220914,0 -0.4,0.17909 -0.4,0.4 v 3.2 c 0,0.22091 -0.179086,0.4 -0.4,0.4 z m 48,-4 H 72 v -4 h 3.6 c 0.220914,0 0.4,0.17909 0.4,0.4 v 3.2 c 0,0.22091 -0.179086,0.4 -0.4,0.4 z m -24,0 H 48 v -3.6 c 0,-0.22091 0.179086,-0.4 0.4,-0.4 h 3.2 c 0.220914,0 0.4,0.17909 0.4,0.4 v 3.2 c 0,0.22091 -0.179086,0.4 -0.4,0.4 z m -8,0 H 40 v -3.6 c 0,-0.22091 0.179086,-0.4 0.4,-0.4 h 3.2 c 0.220914,0 0.4,0.17909 0.4,0.4 v 3.6 z m 28,-4 H 68.4 C 68.179086,104 68,103.82091 68,103.6 V 100 h 3.6 c 0.220914,0 0.4,0.17909 0.4,0.4 v 3.6 z m -8,0 H 60 v -3.6 c 0,-0.22091 0.179086,-0.4 0.4,-0.4 H 64 v 3.6 c 0,0.22091 -0.179086,0.4 -0.4,0.4 z m -44,0 H 16.4 C 16.179086,104 16,103.82091 16,103.6 V 96.4 C 16,96.179086 16.179086,96 16.4,96 H 20 v 7.6 c 0,0.22091 -0.179086,0.4 -0.4,0.4 z m 116,-4 H 116 V 96.4 C 116,96.179086 115.82091,96 115.6,96 H 112 v -3.6 c 0,-0.220914 -0.17909,-0.4 -0.4,-0.4 h -7.2 c -0.22091,0 -0.4,0.179086 -0.4,0.4 v 3.2 c 0,0.220914 -0.17909,0.4 -0.4,0.4 H 100 v -8 h 7.6 c 0.22091,0 0.4,-0.179086 0.4,-0.4 V 84 h 4 v 3.6 c 0,0.220914 0.17909,0.4 0.4,0.4 h 3.6 v 3.6 c 0,0.220914 0.17909,0.4 0.4,0.4 h 3.2 c 0.22091,0 0.4,0.179086 0.4,0.4 v 3.2 c 0,0.220914 0.17909,0.4 0.4,0.4 h 3.2 c 0.22091,0 0.4,-0.179086 0.4,-0.4 v -7.2 c 0,-0.220914 0.17909,-0.4 0.4,-0.4 h 3.2 c 0.22091,0 0.4,0.179086 0.4,0.4 v 7.2 c 0,0.220914 0.17909,0.4 0.4,0.4 h 7.2 c 0.22091,0 0.4,0.179086 0.4,0.4 v 3.6 z m -68,0 H 64 V 96.4 C 64,96.179086 64.179086,96 64.4,96 h 3.2 c 0.220914,0 0.4,0.179086 0.4,0.4 v 3.6 z m -12,0 H 52.4 C 52.179086,100 52,99.820914 52,99.6 V 96.4 C 52,96.179086 51.820914,96 51.6,96 H 48.4 C 48.179086,96 48,96.179086 48,96.4 v 3.2 c 0,0.220914 -0.179086,0.4 -0.4,0.4 H 40.4 C 40.179086,100 40,99.820914 40,99.6 V 96 h 3.6 C 43.820914,96 44,95.820914 44,95.6 V 92 h 7.6 C 51.820914,92 52,91.820914 52,91.6 V 88.4 C 52,88.179086 52.179086,88 52.4,88 H 56 v 11.6 c 0,0.220914 -0.179086,0.4 -0.4,0.4 z m 16,-8 H 68.4 C 68.179086,92 68,91.820914 68,91.6 V 88.4 C 68,88.179086 68.179086,88 68.4,88 H 72 v 4 z m -52,0 H 16.4 C 16.179086,92 16,91.820914 16,91.6 V 88.4 C 16,88.179086 16.179086,88 16.4,88 H 20 v 4 z m 44,-4 H 56 V 84.4 C 56,84.179086 56.179086,84 56.4,84 h 7.2 c 0.220914,0 0.4,0.179086 0.4,0.4 v 3.2 c 0,0.220914 -0.179086,0.4 -0.4,0.4 z m -40,0 H 20 V 84.4 C 20,84.179086 19.820914,84 19.6,84 H 16.4 C 16.179086,84 16,83.820914 16,83.6 V 80.4 C 16,80.179086 16.179086,80 16.4,80 h 3.2 C 19.820914,80 20,79.820914 20,79.6 V 76 h 4 v 3.6 c 0,0.220914 0.179086,0.4 0.4,0.4 H 28 v 3.6 C 28,83.820914 27.820914,84 27.6,84 H 24.4 C 24.179086,84 24,84.179086 24,84.4 v 3.2 c 0,0.220914 -0.179086,0.4 -0.4,0.4 z m 36,-8 H 52.4 C 52.179086,80 52,79.820914 52,79.6 V 76.4 C 52,76.179086 52.179086,76 52.4,76 h 3.2 C 55.820914,76 56,75.820914 56,75.6 V 72.4 C 56,72.179086 55.820914,72 55.6,72 H 52.4 C 52.179086,72 52,71.820914 52,71.6 V 68.4 C 52,68.179086 52.179086,68 52.4,68 h 3.2 C 55.820914,68 56,67.820914 56,67.6 V 56.4 C 56,56.179086 55.820914,56 55.6,56 H 48.4 C 48.179086,56 48,55.820914 48,55.6 V 52.4 C 48,52.179086 47.820914,52 47.6,52 H 40 V 48.4 C 40,48.179086 40.179086,48 40.4,48 h 7.2 C 47.820914,48 48,47.820914 48,47.6 V 28.4 C 48,28.179086 48.179086,28 48.4,28 H 56 v 8 H 52.4 C 52.179086,36 52,36.179086 52,36.4 v 7.2 c 0,0.220914 0.179086,0.4 0.4,0.4 H 56 v 7.6 c 0,0.220914 0.179086,0.4 0.4,0.4 H 60 v 11.6 c 0,0.220914 0.179086,0.4 0.4,0.4 h 3.2 C 63.820914,64 64,63.820914 64,63.6 V 56.4 C 64,56.179086 64.179086,56 64.4,56 h 7.2 C 71.820914,56 72,55.820914 72,55.6 V 52.4 C 72,52.179086 72.179086,52 72.4,52 h 3.2 C 75.820914,52 76,51.820914 76,51.6 V 48 h 3.6 c 0.220914,0 0.4,0.179086 0.4,0.4 v 3.2 c 0,0.220914 0.179086,0.4 0.4,0.4 h 3.2 C 83.820914,52 84,51.820914 84,51.6 V 44 h 4 v 3.6 c 0,0.220914 0.179086,0.4 0.4,0.4 H 92 v 3.6 C 92,51.820914 91.820914,52 91.6,52 H 88.4 C 88.179086,52 88,52.179086 88,52.4 V 56 H 84.4 C 84.179086,56 84,56.179086 84,56.4 v 3.2 C 84,59.820914 83.820914,60 83.6,60 H 72.4 C 72.179086,60 72,60.179086 72,60.4 V 68 H 64.4 C 64.179086,68 64,68.179086 64,68.4 v 3.2 C 64,71.820914 63.820914,72 63.6,72 H 60.4 C 60.179086,72 60,72.179086 60,72.4 v 7.2 c 0,0.220914 -0.179086,0.4 -0.4,0.4 z m -12,0 H 44 V 76.4 C 44,76.179086 43.820914,76 43.6,76 H 40.4 C 40.179086,76 40,75.820914 40,75.6 V 72 h 7.6 c 0.220914,0 0.4,0.179086 0.4,0.4 v 7.2 c 0,0.220914 -0.179086,0.4 -0.4,0.4 z m -16,0 H 28 V 76.4 C 28,76.179086 27.820914,76 27.6,76 H 24 V 72.4 C 24,72.179086 23.820914,72 23.6,72 H 20 v -4 h 3.6 C 23.820914,68 24,67.820914 24,67.6 V 64.4 C 24,64.179086 24.179086,64 24.4,64 h 3.2 c 0.220914,0 0.4,0.179086 0.4,0.4 v 3.2 c 0,0.220914 0.179086,0.4 0.4,0.4 h 3.2 C 31.820914,68 32,67.820914 32,67.6 V 60.4 C 32,60.179086 32.179086,60 32.4,60 h 3.2 c 0.220914,0 0.4,0.179086 0.4,0.4 v 7.2 c 0,0.220914 0.179086,0.4 0.4,0.4 H 40 v 4 H 32.4 C 32.179086,72 32,72.179086 32,72.4 v 7.2 c 0,0.220914 -0.179086,0.4 -0.4,0.4 z m 112,-4 h -3.2 C 140.17909,76 140,75.820914 140,75.6 V 72 h 3.6 c 0.22091,0 0.4,0.179086 0.4,0.4 v 3.2 c 0,0.220914 -0.17909,0.4 -0.4,0.4 z m -124,0 H 16.4 C 16.179086,76 16,75.820914 16,75.6 V 72.4 C 16,72.179086 16.179086,72 16.4,72 H 20 v 4 z m 120,-4 h -3.2 C 136.17909,72 136,71.820914 136,71.6 V 68 h 4 v 4 z m -64,0 H 72.4 C 72.179086,72 72,71.820914 72,71.6 V 68 h 4 v 4 z m 68,-4 H 140 v -3.6 c 0,-0.220914 0.17909,-0.4 0.4,-0.4 h 3.2 c 0.22091,0 0.4,0.179086 0.4,0.4 v 3.2 c 0,0.220914 -0.17909,0.4 -0.4,0.4 z m -8,0 H 116 v -3.6 c 0,-0.220914 0.17909,-0.4 0.4,-0.4 h 3.2 c 0.22091,0 0.4,-0.179086 0.4,-0.4 v -3.2 c 0,-0.220914 0.17909,-0.4 0.4,-0.4 h 3.2 c 0.22091,0 0.4,-0.179086 0.4,-0.4 v -3.2 c 0,-0.220914 0.17909,-0.4 0.4,-0.4 h 3.2 c 0.22091,0 0.4,0.179086 0.4,0.4 v 7.2 c 0,0.220914 0.17909,0.4 0.4,0.4 h 7.2 c 0.22091,0 0.4,0.179086 0.4,0.4 V 68 Z m -52,0 H 76 V 64.4 C 76,64.179086 76.179086,64 76.4,64 h 7.2 c 0.220914,0 0.4,0.179086 0.4,0.4 V 68 Z m -36,0 H 40 V 64.4 C 40,64.179086 40.179086,64 40.4,64 h 7.2 c 0.220914,0 0.4,0.179086 0.4,0.4 v 3.2 c 0,0.220914 -0.179086,0.4 -0.4,0.4 z m -28,0 H 16.4 C 16.179086,68 16,67.820914 16,67.6 V 60.4 C 16,60.179086 16.179086,60 16.4,60 H 20 v 8 z m 80,-4 H 92.4 C 92.179086,64 92,63.820914 92,63.6 V 60 h 7.6 c 0.220914,0 0.4,0.179086 0.4,0.4 v 3.2 c 0,0.220914 -0.179086,0.4 -0.4,0.4 z m -8,-4 H 88.4 C 88.179086,60 88,59.820914 88,59.6 V 56 h 3.6 c 0.220914,0 0.4,0.179086 0.4,0.4 V 60 Z m -48,0 H 40.4 C 40.179086,60 40,59.820914 40,59.6 V 56 h 3.6 c 0.220914,0 0.4,0.179086 0.4,0.4 v 3.2 c 0,0.220914 -0.179086,0.4 -0.4,0.4 z m -20,0 H 20 v -8 h 7.6 c 0.220914,0 0.4,0.179086 0.4,0.4 v 3.2 C 28,55.820914 27.820914,56 27.6,56 H 24.4 C 24.179086,56 24,56.179086 24,56.4 v 3.2 c 0,0.220914 -0.179086,0.4 -0.4,0.4 z m 16,-4 H 32.4 C 32.179086,56 32,55.820914 32,55.6 V 48.4 C 32,48.179086 32.179086,48 32.4,48 h 3.2 c 0.220914,0 0.4,0.179086 0.4,0.4 v 3.2 c 0,0.220914 0.179086,0.4 0.4,0.4 H 40 v 4 z m 108,-4 H 144 v -3.6 c 0,-0.220914 0.17909,-0.4 0.4,-0.4 h 3.2 c 0.22091,0 0.4,0.179086 0.4,0.4 v 3.2 c 0,0.220914 -0.17909,0.4 -0.4,0.4 z m -84,0 H 60 V 48.4 C 60,48.179086 60.179086,48 60.4,48 h 3.2 c 0.220914,0 0.4,0.179086 0.4,0.4 v 3.2 c 0,0.220914 -0.179086,0.4 -0.4,0.4 z m -44,0 H 16.4 C 16.179086,52 16,51.820914 16,51.6 V 48.4 C 16,48.179086 16.179086,48 16.4,48 h 3.2 c 0.220914,0 0.4,0.179086 0.4,0.4 V 52 Z m 56,-4 H 72.4 C 72.179086,48 72,47.820914 72,47.6 V 40.4 C 72,40.179086 71.820914,40 71.6,40 H 68 V 36.4 C 68,36.179086 68.179086,36 68.4,36 H 80 v 4 H 76.4 C 76.179086,40 76,40.179086 76,40.4 V 48 Z m 72,-4 H 120.4 C 120.17909,44 120,43.820914 120,43.6 V 16.4 c 0,-0.220914 0.17909,-0.4 0.4,-0.4 h 27.2 c 0.22091,0 0.4,0.179086 0.4,0.4 v 27.2 c 0,0.220914 -0.17909,0.4 -0.4,0.4 z m -56,0 H 88 V 36.4 C 88,36.179086 88.179086,36 88.4,36 H 92 v 8 z m -8,0 H 80.4 C 80.179086,44 80,43.820914 80,43.6 V 40 h 3.6 c 0.220914,0 0.4,0.179086 0.4,0.4 V 44 Z m -16,0 H 64.4 C 64.179086,44 64,43.820914 64,43.6 V 40 h 4 v 3.6 c 0,0.220914 -0.179086,0.4 -0.4,0.4 z m -8,0 H 56 v -8 h 7.6 c 0.220914,0 0.4,0.179086 0.4,0.4 V 40 H 60.4 C 60.179086,40 60,40.179086 60,40.4 v 3.2 c 0,0.220914 -0.179086,0.4 -0.4,0.4 z m -16,0 H 16.4 C 16.179086,44 16,43.820914 16,43.6 V 16.4 C 16,16.179086 16.179086,16 16.4,16 h 27.2 c 0.220914,0 0.4,0.179086 0.4,0.4 V 43.6 C 44,43.820914 43.820914,44 43.6,44 Z M 144,39.6 V 20.4 c 0,-0.220914 -0.17909,-0.4 -0.4,-0.4 h -19.2 c -0.22091,0 -0.4,0.179086 -0.4,0.4 v 19.2 c 0,0.220914 0.17909,0.4 0.4,0.4 h 19.2 c 0.22091,0 0.4,-0.179086 0.4,-0.4 z m -104,0 V 20.4 C 40,20.179086 39.820914,20 39.6,20 H 20.4 C 20.179086,20 20,20.179086 20,20.4 v 19.2 c 0,0.220914 0.179086,0.4 0.4,0.4 H 39.6 C 39.820914,40 40,39.820914 40,39.6 Z M 139.6,36 H 128.4 C 128.17909,36 128,35.820914 128,35.6 V 24.4 c 0,-0.220914 0.17909,-0.4 0.4,-0.4 h 11.2 c 0.22091,0 0.4,0.179086 0.4,0.4 v 11.2 c 0,0.220914 -0.17909,0.4 -0.4,0.4 z m -24,0 H 108 v -4 h 3.6 c 0.22091,0 0.4,-0.179086 0.4,-0.4 V 20 h 3.6 c 0.22091,0 0.4,0.179086 0.4,0.4 v 15.2 c 0,0.220914 -0.17909,0.4 -0.4,0.4 z m -20,0 H 92 V 32.4 C 92,32.179086 92.179086,32 92.4,32 h 3.2 c 0.220914,0 0.4,0.179086 0.4,0.4 V 36 Z m -60,0 H 24.4 C 24.179086,36 24,35.820914 24,35.6 V 24.4 C 24,24.179086 24.179086,24 24.4,24 h 11.2 c 0.220914,0 0.4,0.179086 0.4,0.4 v 11.2 c 0,0.220914 -0.179086,0.4 -0.4,0.4 z m 32,-4 H 60.4 C 60.179086,32 60,31.820914 60,31.6 V 28.4 C 60,28.179086 59.820914,28 59.6,28 H 56 V 20.4 C 56,20.179086 56.179086,20 56.4,20 h 3.2 C 59.820914,20 60,19.820914 60,19.6 V 16.4 C 60,16.179086 60.179086,16 60.4,16 h 3.2 c 0.220914,0 0.4,0.179086 0.4,0.4 v 3.2 c 0,0.220914 0.179086,0.4 0.4,0.4 h 3.2 C 67.820914,20 68,19.820914 68,19.6 V 16.4 C 68,16.179086 68.179086,16 68.4,16 h 15.2 c 0.220914,0 0.4,0.179086 0.4,0.4 v 3.2 C 84,19.820914 83.820914,20 83.6,20 H 76.4 C 76.179086,20 76,20.179086 76,20.4 V 28 H 72.4 C 72.179086,28 72,27.820914 72,27.6 V 24.4 C 72,24.179086 71.820914,24 71.6,24 H 64.4 C 64.179086,24 64,24.179086 64,24.4 v 3.2 c 0,0.220914 0.179086,0.4 0.4,0.4 h 3.2 c 0.220914,0 0.4,0.179086 0.4,0.4 v 3.2 c 0,0.220914 -0.179086,0.4 -0.4,0.4 z m 44,-12 H 108 v -3.6 c 0,-0.220914 0.17909,-0.4 0.4,-0.4 h 3.2 c 0.22091,0 0.4,0.179086 0.4,0.4 V 20 Z m -60,0 H 48.4 C 48.179086,20 48,19.820914 48,19.6 V 16.4 C 48,16.179086 48.179086,16 48.4,16 h 3.2 c 0.220914,0 0.4,0.179086 0.4,0.4 v 3.2 c 0,0.220914 -0.179086,0.4 -0.4,0.4 z"
         id="path302"
         style="fill:#ffffff;fill-opacity:1" />
    </g>
  </g>
</svg>
